Coordinates
version=1
nRows=32
nColumns=12
inDegrees=yes

Units are S.I. units (second, meters, Newtons, ...)
Angles are in degrees

endheader
time	SC_y	SC_z	SC_x	AC_y	AC_z	AC_x	GH_y	GH_z	GH_yy	EL_x	PS_y
       0.0              -49.64          14.37          2.804          62.95         -14.68         -3.243         -150.9          77.53         -93.32          123.5          66.47
  0.004577              -49.64          14.37          2.816          62.95         -14.68         -3.241         -150.9          77.52         -93.28          123.5          66.47
  0.009155              -49.64          14.37          2.829          62.95         -14.68          -3.24         -150.9          77.51         -93.24          123.5          66.46
   0.01373              -49.64          14.38          2.842          62.94         -14.68         -3.239         -150.9           77.5         -93.19          123.5          66.45
   0.01831              -49.64          14.38          2.856          62.94         -14.68         -3.237         -150.8          77.49         -93.15          123.5          66.44
   0.02289              -49.64          14.38          2.872          62.94         -14.67         -3.235         -150.8          77.47          -93.1          123.5          66.43
   0.02746              -49.64          14.38          2.888          62.94         -14.67         -3.233         -150.8          77.46         -93.04          123.5          66.42
   0.03204              -49.64          14.38          2.905          62.93         -14.67         -3.231         -150.7          77.44         -92.99          123.5          66.41
   0.03662              -49.64          14.38          2.924          62.93         -14.67         -3.229         -150.7          77.42         -92.92          123.5          66.39
    0.0412              -49.64          14.38          2.944          62.93         -14.67         -3.227         -150.6           77.4         -92.86          123.5          66.38
   0.04577              -49.64          14.38          2.965          62.92         -14.66         -3.225         -150.6          77.38         -92.79          123.5          66.37
   0.05035              -49.64          14.39          2.989          62.92         -14.66         -3.222         -150.6          77.36         -92.71          123.5          66.35
   0.05493              -49.64          14.39          3.013          62.92         -14.66         -3.219         -150.5          77.34         -92.63          123.5          66.33
   0.05951              -49.64          14.39           3.04          62.91         -14.66         -3.216         -150.4          77.31         -92.54          123.5          66.32
   0.06408              -49.64          14.39          3.069          62.91         -14.65         -3.213         -150.4          77.29         -92.45          123.5           66.3
   0.06866              -49.64           14.4          3.101           62.9         -14.65          -3.21         -150.3          77.26         -92.35          123.5          66.28
   0.07324              -49.64           14.4          3.135           62.9         -14.65         -3.206         -150.3          77.23         -92.23          123.5          66.25
   0.07782              -49.64           14.4          3.173          62.89         -14.64         -3.202         -150.2          77.19         -92.11          123.5          66.23
   0.08239              -49.65           14.4          3.214          62.88         -14.64         -3.197         -150.1          77.15         -91.98          123.5           66.2
   0.08697              -49.65          14.41          3.258          62.88         -14.64         -3.192         -150.0          77.11         -91.83          123.5          66.17
   0.09155              -49.65          14.41          3.307          62.87         -14.63         -3.186         -149.9          77.06         -91.67          123.5          66.14
   0.09613              -49.65          14.42          3.361          62.86         -14.63          -3.18         -149.8          77.01         -91.49          123.5           66.1
    0.1007              -49.65          14.42          3.421          62.85         -14.62         -3.174         -149.7          76.96          -91.3          123.5          66.06
    0.1053              -49.65          14.43          3.487          62.84         -14.61         -3.166         -149.5           76.9         -91.08          123.5          66.02
    0.1099              -49.65          14.43          3.561          62.83         -14.61         -3.158         -149.4          76.83         -90.84          123.4          65.97
    0.1144              -49.65          14.44          3.643          62.81          -14.6         -3.149         -149.2          76.75         -90.57          123.4          65.91
     0.119              -49.65          14.45          3.735           62.8         -14.59         -3.139         -149.0          76.67         -90.27          123.4          65.85
    0.1236              -49.65          14.45          3.838          62.78         -14.58         -3.127         -148.8          76.57         -89.93          123.4          65.78
    0.1282              -49.66          14.46          3.955          62.76         -14.57         -3.114         -148.6          76.46         -89.55          123.4          65.71
    0.1327              -49.66          14.47          4.087          62.74         -14.56         -3.099         -148.3          76.34         -89.12          123.4          65.62
    0.1373              -49.66          14.49          4.239          62.71         -14.54         -3.082         -148.0           76.2         -88.62          123.4          65.52
    0.1419              -49.66           14.5          4.412          62.68         -14.53         -3.063         -147.6          76.03         -88.06          123.4           65.4
